<svg version="1.1" xmlns="http://www.w3.org/2000/svg" xmlns:xlink="http://www.w3.org/1999/xlink" viewBox="0 0 50 53.3" xml:space="preserve">
<style type="text/css">
    .st0{fill-rule:evenodd;clip-rule:evenodd;fill:#C53B19;}
    .st1{fill-rule:evenodd;clip-rule:evenodd;fill:#FFFFFF;}
</style>
<g>
    <polygon class="st0" points="50,22.1 50,53.3 0,53.3 0,22.1 0,22.1 25,0 50,22.1 	"></polygon>
    <path class="st1" d="M25.6,21.2c6.1,0,11.2,4.2,12.6,9.8h-4.8c-1.2-3.1-4.3-5.3-7.8-5.3c-4.7,0-8.5,3.8-8.5,8.5
        c0,4.7,3.8,8.5,8.5,8.5c3.6,0,6.6-2.2,7.8-5.3h4.8c-1.4,5.6-6.5,9.8-12.6,9.8c-7.2,0-13-5.8-13-13C12.7,27,18.5,21.2,25.6,21.2z"></path>
</g>
</svg>